<svg xmlns="http://www.w3.org/2000/svg" xmlns:xlink="http://www.w3.org/1999/xlink" xmlns:lucid="lucid" width="2011.89" height="1424.48"><g transform="translate(0 0)" lucid:page-tab-id="wEAFUr7kp~Rb"><path d="M0 0h2011.9v1424.48H0z" fill="#fff"/><path d="M640 508c0-4.42 3.58-8 8-8h344c4.42 0 8 3.58 8 8v289c0 4.42-3.58 8-8 8H648c-4.42 0-8-3.58-8-8z" fill="#fff"/><path d="M640 508c0-4.42 3.58-8 8-8h344c4.42 0 8 3.58 8 8v289c0 4.42-3.58 8-8 8H648c-4.42 0-8-3.58-8-8zM640 540h360M700 540v265M850 540v265" stroke="#333" fill="none"/><use xlink:href="#a" transform="matrix(1,0,0,1,650,500) translate(151.28395061728395 25.15555555555556)"/><use xlink:href="#b" transform="matrix(1,0,0,1,645,542.5) translate(13.148148148148145 20.155555555555555)"/><use xlink:href="#c" transform="matrix(1,0,0,1,705,542.5) translate(62.592592592592595 20.155555555555555)"/><use xlink:href="#d" transform="matrix(1,0,0,1,855,542.5) translate(60.123456790123456 20.155555555555555)"/><use xlink:href="#e" transform="matrix(1,0,0,1,705,577.5) translate(43.876543209876544 20.155555555555555)"/><use xlink:href="#f" transform="matrix(1,0,0,1,855,577.5) translate(24.666666666666668 20.155555555555555)"/><use xlink:href="#g" transform="matrix(1,0,0,1,705,612.5) translate(44.39506172839506 20.155555555555555)"/><use xlink:href="#f" transform="matrix(1,0,0,1,855,612.5) translate(24.666666666666668 20.155555555555555)"/><use xlink:href="#h" transform="matrix(1,0,0,1,705,647.5) translate(42.025 17.1)"/><use xlink:href="#i" transform="matrix(1,0,0,1,855,647.5) translate(24.099999999999994 17.1)"/><use xlink:href="#j" transform="matrix(1,0,0,1,705,679.5) translate(48.574999999999996 17.1)"/><use xlink:href="#k" transform="matrix(1,0,0,1,855,679.5) translate(24.099999999999994 17.1)"/><use xlink:href="#l" transform="matrix(1,0,0,1,705,711.5) translate(31.549999999999997 17.1)"/><use xlink:href="#m" transform="matrix(1,0,0,1,855,711.5) translate(24.099999999999994 17.1)"/><use xlink:href="#n" transform="matrix(1,0,0,1,705,743.5) translate(55 17.1)"/><use xlink:href="#o" transform="matrix(1,0,0,1,855,743.5) translate(51.025 17.1)"/><use xlink:href="#p" transform="matrix(1,0,0,1,705,775.5) translate(35.575 17.1)"/><use xlink:href="#i" transform="matrix(1,0,0,1,855,775.5) translate(24.099999999999994 17.1)"/><path d="M60 588c0-4.42 3.58-8 8-8h264c4.42 0 8 3.58 8 8v161c0 4.42-3.58 8-8 8H68c-4.42 0-8-3.58-8-8z" fill="#fff"/><path d="M60 588c0-4.42 3.58-8 8-8h264c4.42 0 8 3.58 8 8v161c0 4.42-3.58 8-8 8H68c-4.42 0-8-3.58-8-8zM60 620h280M120 620v137M230 620v137" stroke="#333" fill="none"/><use xlink:href="#q" transform="matrix(1,0,0,1,70,580) translate(60.49382716049381 25.15555555555556)"/><use xlink:href="#b" transform="matrix(1,0,0,1,65,622.5) translate(13.148148148148145 20.155555555555555)"/><use xlink:href="#c" transform="matrix(1,0,0,1,125,622.5) translate(42.592592592592595 20.155555555555555)"/><use xlink:href="#d" transform="matrix(1,0,0,1,235,622.5) translate(40.123456790123456 20.155555555555555)"/><use xlink:href="#r" transform="matrix(1,0,0,1,65,657.5) translate(13.666666666666664 20.155555555555555)"/><use xlink:href="#s" transform="matrix(1,0,0,1,125,657.5) translate(22.41975308641975 20.155555555555555)"/><use xlink:href="#d" transform="matrix(1,0,0,1,235,657.5) translate(40.123456790123456 20.155555555555555)"/><use xlink:href="#t" transform="matrix(1,0,0,1,125,692.5) translate(16.44444444444444 20.155555555555555)"/><use xlink:href="#u" transform="matrix(1,0,0,1,235,692.5) translate(11.901234567901223 20.155555555555555)"/><use xlink:href="#v" transform="matrix(1,0,0,1,125,727.5) translate(26 17.1)"/><use xlink:href="#w" transform="matrix(1,0,0,1,235,727.5) translate(4.099999999999994 17.1)"/><path d="M60 1067.98c0-4.42 3.58-8 8-8h264c4.42 0 8 3.58 8 8v161c0 4.42-3.58 8-8 8H68c-4.42 0-8-3.58-8-8z" fill="#fff"/><path d="M60 1067.98c0-4.42 3.58-8 8-8h264c4.42 0 8 3.58 8 8v161c0 4.42-3.58 8-8 8H68c-4.42 0-8-3.58-8-8zM60 1099.98h280M120 1099.98v137M230 1099.98v137" stroke="#333" fill="none"/><use xlink:href="#x" transform="matrix(1,0,0,1,70,1059.9815649081208) translate(104.8641975308642 25.15555555555556)"/><use xlink:href="#b" transform="matrix(1,0,0,1,65,1102.4815649081208) translate(13.148148148148145 20.155555555555555)"/><use xlink:href="#c" transform="matrix(1,0,0,1,125,1102.4815649081208) translate(42.592592592592595 20.155555555555555)"/><use xlink:href="#d" transform="matrix(1,0,0,1,235,1102.4815649081208) translate(40.123456790123456 20.155555555555555)"/><use xlink:href="#y" transform="matrix(1,0,0,1,125,1137.4815649081208) translate(12.098765432098755 20.155555555555555)"/><use xlink:href="#z" transform="matrix(1,0,0,1,235,1137.4815649081208) translate(4.666666666666661 20.155555555555555)"/><use xlink:href="#A" transform="matrix(1,0,0,1,125,1172.4815649081208) translate(28.839506172839503 20.155555555555555)"/><use xlink:href="#B" transform="matrix(1,0,0,1,235,1172.4815649081208) translate(4.666666666666661 20.155555555555555)"/><use xlink:href="#l" transform="matrix(1,0,0,1,125,1207.4815649081208) translate(11.549999999999997 17.1)"/><use xlink:href="#m" transform="matrix(1,0,0,1,235,1207.4815649081208) translate(4.099999999999994 17.1)"/><path d="M540 1068c0-4.42 3.58-8 8-8h304c4.42 0 8 3.58 8 8v161c0 4.42-3.58 8-8 8H548c-4.42 0-8-3.58-8-8z" fill="#fff"/><path d="M540 1068c0-4.42 3.58-8 8-8h304c4.42 0 8 3.58 8 8v161c0 4.42-3.58 8-8 8H548c-4.42 0-8-3.58-8-8zM540 1100h320M600 1100v137M730 1100v137" stroke="#333" fill="none"/><use xlink:href="#C" transform="matrix(1,0,0,1,550,1060) translate(127.48148148148148 25.15555555555556)"/><use xlink:href="#b" transform="matrix(1,0,0,1,545,1102.5) translate(13.148148148148145 20.155555555555555)"/><use xlink:href="#c" transform="matrix(1,0,0,1,605,1102.5) translate(52.592592592592595 20.155555555555555)"/><use xlink:href="#d" transform="matrix(1,0,0,1,735,1102.5) translate(50.123456790123456 20.155555555555555)"/><use xlink:href="#r" transform="matrix(1,0,0,1,545,1137.5) translate(13.666666666666664 20.155555555555555)"/><use xlink:href="#D" transform="matrix(1,0,0,1,605,1137.5) translate(25.99999999999999 20.155555555555555)"/><use xlink:href="#d" transform="matrix(1,0,0,1,735,1137.5) translate(50.123456790123456 20.155555555555555)"/><use xlink:href="#E" transform="matrix(1,0,0,1,605,1172.5) translate(46.222222222222214 20.155555555555555)"/><use xlink:href="#z" transform="matrix(1,0,0,1,735,1172.5) translate(14.66666666666666 20.155555555555555)"/><use xlink:href="#F" transform="matrix(1,0,0,1,605,1207.5) translate(42.05 17.1)"/><use xlink:href="#G" transform="matrix(1,0,0,1,735,1207.5) translate(9.099999999999994 17.1)"/><path d="M1520 788c0-4.42 3.58-8 8-8h304c4.42 0 8 3.58 8 8v193c0 4.42-3.58 8-8 8h-304c-4.42 0-8-3.58-8-8z" fill="#fff"/><path d="M1520 788c0-4.42 3.58-8 8-8h304c4.42 0 8 3.58 8 8v193c0 4.42-3.58 8-8 8h-304c-4.42 0-8-3.58-8-8zM1520 820h320M1580 820v169M1710 820v169" stroke="#333" fill="none"/><use xlink:href="#H" transform="matrix(1,0,0,1,1530,780) translate(111.55555555555556 25.15555555555556)"/><use xlink:href="#b" transform="matrix(1,0,0,1,1525,822.5) translate(13.148148148148145 20.155555555555555)"/><use xlink:href="#c" transform="matrix(1,0,0,1,1585,822.5) translate(52.592592592592595 20.155555555555555)"/><use xlink:href="#I" transform="matrix(1,0,0,1,1715,822.5) translate(50.641975308641975 20.155555555555555)"/><use xlink:href="#r" transform="matrix(1,0,0,1,1525,857.5) translate(13.666666666666664 20.155555555555555)"/><use xlink:href="#J" transform="matrix(1,0,0,1,1585,857.5) translate(33.358024691358025 20.155555555555555)"/><use xlink:href="#I" transform="matrix(1,0,0,1,1715,857.5) translate(50.641975308641975 20.155555555555555)"/><use xlink:href="#r" transform="matrix(1,0,0,1,1525,892.5) translate(13.666666666666664 20.155555555555555)"/><use xlink:href="#s" transform="matrix(1,0,0,1,1585,892.5) translate(32.419753086419746 20.155555555555555)"/><use xlink:href="#I" transform="matrix(1,0,0,1,1715,892.5) translate(50.641975308641975 20.155555555555555)"/><use xlink:href="#K" transform="matrix(1,0,0,1,1585,927.5) translate(23.049999999999997 17.1)"/><use xlink:href="#G" transform="matrix(1,0,0,1,1715,927.5) translate(9.099999999999994 17.1)"/><use xlink:href="#L" transform="matrix(1,0,0,1,1585,959.5) translate(3.4499999999999957 17.1)"/><use xlink:href="#M" transform="matrix(1,0,0,1,1715,959.5) translate(21.424999999999997 17.1)"/><path d="M900 88c0-4.42 3.58-8 8-8h304c4.42 0 8 3.58 8 8v193c0 4.42-3.58 8-8 8H908c-4.42 0-8-3.58-8-8z" fill="#fff"/><path d="M900 88c0-4.42 3.58-8 8-8h304c4.42 0 8 3.58 8 8v193c0 4.42-3.58 8-8 8H908c-4.42 0-8-3.58-8-8zM900 120h320M959.7 120v169M1090 120v169" stroke="#333" fill="none"/><use xlink:href="#N" transform="matrix(1,0,0,1,910,80) translate(125.83333333333333 25.15555555555556)"/><use xlink:href="#b" transform="matrix(1,0,0,1,905,122.5) translate(13.148148148148145 20.155555555555555)"/><use xlink:href="#c" transform="matrix(1,0,0,1,964.6951662069965,122.5) translate(53.092592592592595 20.155555555555555)"/><use xlink:href="#d" transform="matrix(1,0,0,1,1095,122.5) translate(50.623456790123456 20.155555555555555)"/><use xlink:href="#r" transform="matrix(1,0,0,1,905,157.5) translate(13.666666666666664 20.155555555555555)"/><use xlink:href="#O" transform="matrix(1,0,0,1,964.6951662069965,157.5) translate(22.080246913580236 20.155555555555555)"/><use xlink:href="#d" transform="matrix(1,0,0,1,1095,157.5) translate(50.623456790123456 20.155555555555555)"/><use xlink:href="#P" transform="matrix(1,0,0,1,964.6951662069965,192.5) translate(38.30246913580247 20.155555555555555)"/><use xlink:href="#z" transform="matrix(1,0,0,1,1095,192.5) translate(15.16666666666666 20.155555555555555)"/><use xlink:href="#Q" transform="matrix(1,0,0,1,964.6951662069965,227.5) translate(47.025 17.1)"/><use xlink:href="#R" transform="matrix(1,0,0,1,1095,227.5) translate(14.599999999999994 17.1)"/><use xlink:href="#S" transform="matrix(1,0,0,1,964.6951662069965,259.5) translate(17.074999999999996 17.1)"/><use xlink:href="#G" transform="matrix(1,0,0,1,1095,259.5) translate(9.599999999999994 17.1)"/><path d="M40 208c0-4.42 3.58-8 8-8h304c4.42 0 8 3.58 8 8v193c0 4.42-3.58 8-8 8H48c-4.42 0-8-3.58-8-8z" fill="#fff"/><path d="M40 208c0-4.42 3.58-8 8-8h304c4.42 0 8 3.58 8 8v193c0 4.42-3.58 8-8 8H48c-4.42 0-8-3.58-8-8zM40 240h320M100 240v169M230 240v169" stroke="#333" fill="none"/><use xlink:href="#T" transform="matrix(1,0,0,1,50,200) translate(120.39506172839506 25.15555555555556)"/><use xlink:href="#b" transform="matrix(1,0,0,1,45,242.5) translate(13.148148148148145 20.155555555555555)"/><use xlink:href="#c" transform="matrix(1,0,0,1,105,242.5) translate(52.592592592592595 20.155555555555555)"/><use xlink:href="#d" transform="matrix(1,0,0,1,235,242.5) translate(50.123456790123456 20.155555555555555)"/><use xlink:href="#r" transform="matrix(1,0,0,1,45,277.5) translate(13.666666666666664 20.155555555555555)"/><use xlink:href="#U" transform="matrix(1,0,0,1,105,277.5) translate(25.012345679012338 20.155555555555555)"/><use xlink:href="#d" transform="matrix(1,0,0,1,235,277.5) translate(50.123456790123456 20.155555555555555)"/><use xlink:href="#E" transform="matrix(1,0,0,1,105,312.5) translate(46.222222222222214 20.155555555555555)"/><use xlink:href="#z" transform="matrix(1,0,0,1,235,312.5) translate(14.66666666666666 20.155555555555555)"/><use xlink:href="#S" transform="matrix(1,0,0,1,105,347.5) translate(16.574999999999996 17.1)"/><use xlink:href="#G" transform="matrix(1,0,0,1,235,347.5) translate(9.099999999999994 17.1)"/><use xlink:href="#V" transform="matrix(1,0,0,1,105,379.5) translate(46.55 17.1)"/><use xlink:href="#G" transform="matrix(1,0,0,1,235,379.5) translate(9.099999999999994 17.1)"/><path d="M1640 88c0-4.42 3.58-8 8-8h320.53c4.42 0 8 3.58 8 8v193c0 4.42-3.58 8-8 8H1648c-4.42 0-8-3.58-8-8z" fill="#fff"/><path d="M1640 88c0-4.42 3.58-8 8-8h320.53c4.42 0 8 3.58 8 8v193c0 4.42-3.58 8-8 8H1648c-4.42 0-8-3.58-8-8zM1640 120h336.53M1696.94 120v169M1838.27 120v169" stroke="#333" fill="none"/><use xlink:href="#W" transform="matrix(1,0,0,1,1650,80) translate(140.72222222222223 25.15555555555556)"/><use xlink:href="#b" transform="matrix(1,0,0,1,1645,122.5) translate(11.648148148148145 20.155555555555555)"/><use xlink:href="#c" transform="matrix(1,0,0,1,1701.9429525330238,122.5) translate(58.592592592592595 20.155555555555555)"/><use xlink:href="#d" transform="matrix(1,0,0,1,1843.2660808898245,122.5) translate(54.623456790123456 20.155555555555555)"/><use xlink:href="#r" transform="matrix(1,0,0,1,1645,157.5) translate(12.166666666666664 20.155555555555555)"/><use xlink:href="#s" transform="matrix(1,0,0,1,1701.9429525330238,157.5) translate(38.419753086419746 20.155555555555555)"/><use xlink:href="#d" transform="matrix(1,0,0,1,1843.2660808898245,157.5) translate(54.623456790123456 20.155555555555555)"/><use xlink:href="#r" transform="matrix(1,0,0,1,1645,192.5) translate(12.166666666666664 20.155555555555555)"/><use xlink:href="#X" transform="matrix(1,0,0,1,1701.9429525330238,192.5) translate(32.469135802469125 20.155555555555555)"/><use xlink:href="#d" transform="matrix(1,0,0,1,1843.2660808898245,192.5) translate(54.623456790123456 20.155555555555555)"/><use xlink:href="#Y" transform="matrix(1,0,0,1,1701.9429525330238,227.5) translate(52.05 17.1)"/><use xlink:href="#Z" transform="matrix(1,0,0,1,1843.2660808898245,227.5) translate(18.599999999999994 17.1)"/><use xlink:href="#aa" transform="matrix(1,0,0,1,1701.9429525330238,259.5) translate(36.5 17.1)"/><use xlink:href="#G" transform="matrix(1,0,0,1,1843.2660808898245,259.5) translate(13.599999999999994 17.1)"/><path d="M1060 1048c0-4.42 3.58-8 8-8h304c4.42 0 8 3.58 8 8v225c0 4.42-3.58 8-8 8h-304c-4.42 0-8-3.58-8-8z" fill="#fff"/><path d="M1060 1048c0-4.42 3.58-8 8-8h304c4.42 0 8 3.58 8 8v225c0 4.42-3.58 8-8 8h-304c-4.42 0-8-3.58-8-8zM1060 1080h320M1130.98 1080v201M1250 1080v201" stroke="#333" fill="none"/><use xlink:href="#ab" transform="matrix(1,0,0,1,1070,1040) translate(112.22222222222223 25.15555555555556)"/><use xlink:href="#b" transform="matrix(1,0,0,1,1065,1082.5) translate(18.648148148148145 20.155555555555555)"/><use xlink:href="#c" transform="matrix(1,0,0,1,1135.9798229060823,1082.5) translate(47.592592592592595 20.155555555555555)"/><use xlink:href="#d" transform="matrix(1,0,0,1,1255,1082.5) translate(50.123456790123456 20.155555555555555)"/><use xlink:href="#r" transform="matrix(1,0,0,1,1065,1117.5) translate(19.166666666666664 20.155555555555555)"/><use xlink:href="#ac" transform="matrix(1,0,0,1,1135.9798229060823,1117.5) translate(8.654320987654312 20.155555555555555)"/><use xlink:href="#d" transform="matrix(1,0,0,1,1255,1117.5) translate(50.123456790123456 20.155555555555555)"/><use xlink:href="#E" transform="matrix(1,0,0,1,1135.9798229060823,1152.5) translate(41.222222222222214 20.155555555555555)"/><use xlink:href="#z" transform="matrix(1,0,0,1,1255,1152.5) translate(14.66666666666666 20.155555555555555)"/><use xlink:href="#S" transform="matrix(1,0,0,1,1135.9798229060823,1187.5) translate(11.574999999999996 17.1)"/><use xlink:href="#G" transform="matrix(1,0,0,1,1255,1187.5) translate(9.099999999999994 17.1)"/><use xlink:href="#ad" transform="matrix(1,0,0,1,1135.9798229060823,1219.5) translate(16.949999999999996 17.1)"/><use xlink:href="#M" transform="matrix(1,0,0,1,1255,1219.5) translate(21.424999999999997 17.1)"/><use xlink:href="#Q" transform="matrix(1,0,0,1,1135.9798229060823,1251.5) translate(41.525 17.1)"/><use xlink:href="#m" transform="matrix(1,0,0,1,1255,1251.5) translate(14.099999999999994 17.1)"/><path d="M929.05 479.5v-73c0-6.63 5.37-12 12-12H1048c6.63 0 12-5.37 12-12V329" stroke="#333" fill="none"/><path d="M939.05 489.5h-20M929.05 499.5v-20M939.05 479.5h-20M1070 289.72l-10 20-10-20M1060 289.72v20M1070 319.72c0 5.53-4.48 10-10 10s-10-4.47-10-10c0-5.52 4.48-10 10-10s10 4.48 10 10" stroke="#333" fill="#fff"/><path d="M1240.5 137.5H1430v.02h170" stroke="#333" fill="none"/><path d="M1230.5 147.5v-20M1220.5 137.5h20M1240.5 147.5v-20M1639.28 147.52l-20-10 20-10M1639.28 137.52h-20M1619.28 137.52c0 5.52-4.48 10-10 10-5.53 0-10-4.48-10-10s4.47-10 10-10c5.52 0 10 4.48 10 10" stroke="#333" fill="#fff"/><path d="M1945.68 309.5v213c0 6.63-5.37 12-12 12h-136c-6.63 0-12 5.37-12 12V740" stroke="#333" fill="none"/><path d="M1935.68 299.5h20M1945.68 289.5v20M1935.68 309.5h20M1775.68 779.28l10-20 10 20M1785.68 779.28v-20M1795.68 749.28c0 5.52-4.48 10-10 10s-10-4.48-10-10c0-5.53 4.48-10 10-10s10 4.47 10 10" stroke="#333" fill="#fff"/><path d="M1020.5 693.1H1248c6.63 0 12 5.4 12 12v150.33c0 6.63 5.37 12 12 12h208" stroke="#333" fill="none"/><path d="M1010.5 703.1v-20M1000.5 693.1h20M1020.5 703.1v-20M1519.28 877.43l-20-10 20-10M1519.28 867.43h-20M1499.28 867.43c0 5.52-4.48 10-10 10-5.53 0-10-4.48-10-10s4.47-10 10-10c5.52 0 10 4.48 10 10" stroke="#333" fill="#fff"/><path d="M1020.5 520.07H1308c6.63 0 12-5.37 12-12V219.5c0-6.64 5.37-12 12-12h268" stroke="#333" fill="none"/><path d="M1010.5 530.07v-20M1000.5 520.07h20M1020.5 530.07v-20M1639.28 217.5l-20-10 20-10M1639.28 207.5h-20M1619.28 207.5c0 5.5-4.48 10-10 10-5.53 0-10-4.5-10-10 0-5.53 4.47-10 10-10 5.52 0 10 4.47 10 10" stroke="#333" fill="#fff"/><path d="M619.5 520.07H512c-6.63 0-12-5.37-12-12V304.5c0-6.62-5.37-12-12-12h-88" stroke="#333" fill="none"/><path d="M629.5 510.07v20M639.5 520.07h-20M619.5 510.07v20M360.72 282.5l20 10-20 10M360.72 292.5h20M400.72 292.5c0 5.53-4.47 10-10 10-5.52 0-10-4.47-10-10 0-5.52 4.48-10 10-10 5.53 0 10 4.48 10 10" stroke="#333" fill="#fff"/><path d="M619.5 672.5H380" stroke="#333" fill="none"/><path d="M629.5 662.5v20M639.5 672.5h-20M619.5 662.5v20M350.5 682.5v-20M340.5 672.5h20M380.5 672.5c0 5.52-4.48 10-10 10s-10-4.48-10-10 4.48-10 10-10 10 4.48 10 10" stroke="#333" fill="#fff"/><path d="M200 1039.48V797" stroke="#333" fill="none"/><path d="M210 1049.48h-20M200 1059.48v-20M210 1039.48h-20M210 757.72l-10 20-10-20M200 757.72v20M210 787.72c0 5.53-4.48 10-10 10s-10-4.47-10-10c0-5.52 4.48-10 10-10s10 4.48 10 10" stroke="#333" fill="#fff"/><path d="M360.5 1152.5H500" stroke="#333" fill="none"/><path d="M350.5 1162.5v-20M340.5 1152.5h20M360.5 1162.5v-20M539.28 1162.5l-20-10 20-10M539.28 1152.5h-20M519.28 1152.5c0 5.52-4.48 10-10 10-5.53 0-10-4.48-10-10 0-5.53 4.47-10 10-10 5.52 0 10 4.47 10 10" stroke="#333" fill="#fff"/><path d="M1020.5 757.3c5.25 0 9.5 4.24 9.5 9.5v320.7" stroke="#333" fill="none"/><path d="M1010.5 767.3v-20M1000.5 757.3h20M1020.5 767.3v-20M1056.08 1106.9l-15.73-15.9 22.15-3.04M1059.3 1097.43l-18.95-6.42" stroke="#333" fill="#fff"/><path d="M1040.88 1087.8c0 5.52-4.48 10-10 10-5.53 0-10-4.48-10-10 0-5.53 4.47-10 10-10 5.52 0 10 4.47 10 10" stroke="#333" fill="#fff"/><path d="M440 88c0-4.42 3.58-8 8-8h244c4.42 0 8 3.58 8 8v94c0 4.42-3.58 8-8 8H448c-4.42 0-8-3.58-8-8z" fill="#fff"/><path d="M440 88c0-4.42 3.58-8 8-8h244c4.42 0 8 3.58 8 8v94c0 4.42-3.58 8-8 8H448c-4.42 0-8-3.58-8-8zM440 120h260M528.57 120v70M625.96 120v70" stroke="#333" fill="none"/><use xlink:href="#ae" transform="matrix(1,0,0,1,450,80) translate(72.17283950617283 25.15555555555556)"/><use xlink:href="#af" transform="matrix(1,0,0,1,445,122.5) translate(13.845679012345673 20.155555555555555)"/><use xlink:href="#ag" transform="matrix(1,0,0,1,445,122.5) translate(42.48765432098765 20.155555555555555)"/><use xlink:href="#X" transform="matrix(1,0,0,1,533.5730875308461,122.5) translate(10.469135802469129 20.155555555555555)"/><use xlink:href="#d" transform="matrix(1,0,0,1,630.9609687638432,122.5) translate(22.623456790123456 20.155555555555555)"/><use xlink:href="#af" transform="matrix(1,0,0,1,445,157.5) translate(13.845679012345673 20.155555555555555)"/><use xlink:href="#ag" transform="matrix(1,0,0,1,445,157.5) translate(42.48765432098765 20.155555555555555)"/><use xlink:href="#s" transform="matrix(1,0,0,1,533.5730875308461,157.5) translate(16.41975308641975 20.155555555555555)"/><use xlink:href="#d" transform="matrix(1,0,0,1,630.9609687638432,157.5) translate(22.623456790123456 20.155555555555555)"/><path d="M820 479.5V357c0-6.63-5.37-12-12-12H659.15c-6.63 0-12-5.37-12-12V230" stroke="#333" fill="none"/><path d="M830 489.5h-20M820 499.5v-20M830 479.5h-20M657.15 190.72l-10 20-10-20M647.15 190.72v20M657.15 220.72c0 5.53-4.48 10-10 10s-10-4.47-10-10c0-5.52 4.48-10 10-10s10 4.48 10 10" stroke="#333" fill="#fff"/><path d="M740 137.5h139.5" stroke="#333" fill="none"/><path d="M700.72 127.5l20 10-20 10M700.72 137.5h20M740.72 137.5c0 5.52-4.47 10-10 10-5.52 0-10-4.48-10-10s4.48-10 10-10c5.53 0 10 4.48 10 10M889.5 127.5v20M899.5 137.5h-20M879.5 127.5v20" stroke="#333" fill="#fff"/><path d="M1360 538.47c0-4.42 3.58-8 8-8h320.53c4.42 0 8 3.58 8 8v94c0 4.42-3.58 8-8 8H1368c-4.42 0-8-3.58-8-8z" fill="#fff"/><path d="M1360 538.47c0-4.42 3.58-8 8-8h320.53c4.42 0 8 3.58 8 8v94c0 4.42-3.58 8-8 8H1368c-4.42 0-8-3.58-8-8zM1360 570.47h336.53M1449.73 570.47v70M1558.27 570.47v70" stroke="#333" fill="none"/><use xlink:href="#ah" transform="matrix(1,0,0,1,1370,530.4714285714285) translate(117.56172839506173 25.15555555555556)"/><use xlink:href="#af" transform="matrix(1,0,0,1,1365,572.9714285714285) translate(14.345679012345673 20.155555555555555)"/><use xlink:href="#ag" transform="matrix(1,0,0,1,1365,572.9714285714285) translate(42.98765432098765 20.155555555555555)"/><use xlink:href="#s" transform="matrix(1,0,0,1,1454.725603657061,572.9714285714285) translate(21.91975308641975 20.155555555555555)"/><use xlink:href="#d" transform="matrix(1,0,0,1,1563.2660808898245,572.9714285714285) translate(54.623456790123456 20.155555555555555)"/><use xlink:href="#af" transform="matrix(1,0,0,1,1365,607.9714285714285) translate(14.345679012345673 20.155555555555555)"/><use xlink:href="#ag" transform="matrix(1,0,0,1,1365,607.9714285714285) translate(42.98765432098765 20.155555555555555)"/><use xlink:href="#J" transform="matrix(1,0,0,1,1454.725603657061,607.9714285714285) translate(22.858024691358022 20.155555555555555)"/><use xlink:href="#d" transform="matrix(1,0,0,1,1563.2660808898245,607.9714285714285) translate(54.623456790123456 20.155555555555555)"/><path d="M1808.27 309.5v88.24c0 6.62-5.38 12-12 12h-256c-6.63 0-12 5.37-12 12v68.73" stroke="#333" fill="none"/><path d="M1798.27 299.5h20M1808.27 289.5v20M1798.27 309.5h20M1518.27 529.75l10-20 10 20M1528.27 529.75v-20M1538.27 499.75c0 5.52-4.48 10-10 10-5.53 0-10-4.48-10-10 0-5.53 4.47-10 10-10 5.52 0 10 4.47 10 10" stroke="#333" fill="#fff"/><path d="M1320 587.97h-299.5" stroke="#333" fill="none"/><path d="M1359.28 597.97l-20-10 20-10M1359.28 587.97h-20M1339.28 587.97c0 5.52-4.48 10-10 10-5.53 0-10-4.48-10-10s4.47-10 10-10c5.52 0 10 4.48 10 10M1010.5 597.97v-20M1000.5 587.97h20M1020.5 597.97v-20" stroke="#333" fill="#fff"/><defs><path fill="#333" d="M232-93c-1 65-40 97-104 97C67 4 28-28 28-90v-158h33c8 89-33 224 67 224 102 0 64-133 71-224h33v155" id="ai"/><path fill="#333" d="M135-143c-3-34-86-38-87 0 15 53 115 12 119 90S17 21 10-45l28-5c4 36 97 45 98 0-10-56-113-15-118-90-4-57 82-63 122-42 12 7 21 19 24 35" id="aj"/><path fill="#333" d="M100-194c63 0 86 42 84 106H49c0 40 14 67 53 68 26 1 43-12 49-29l28 8c-11 28-37 45-77 45C44 4 14-33 15-96c1-61 26-98 85-98zm52 81c6-60-76-77-97-28-3 7-6 17-6 28h103" id="ak"/><path fill="#333" d="M114-163C36-179 61-72 57 0H25l-1-190h30c1 12-1 29 2 39 6-27 23-49 58-41v29" id="al"/><g id="a"><use transform="matrix(0.04938271604938272,0,0,0.04938271604938272,0,0)" xlink:href="#ai"/><use transform="matrix(0.04938271604938272,0,0,0.04938271604938272,12.790123456790125,0)" xlink:href="#aj"/><use transform="matrix(0.04938271604938272,0,0,0.04938271604938272,21.679012345679013,0)" xlink:href="#ak"/><use transform="matrix(0.04938271604938272,0,0,0.04938271604938272,31.555555555555557,0)" xlink:href="#al"/></g><path fill="#333" d="M30-248c87 1 191-15 191 75 0 78-77 80-158 76V0H30v-248zm33 125c57 0 124 11 124-50 0-59-68-47-124-48v98" id="am"/><path fill="#333" d="M194 0L95-120 63-95V0H30v-248h33v124l119-124h40L117-140 236 0h-42" id="an"/><g id="b"><use transform="matrix(0.04938271604938272,0,0,0.04938271604938272,0,0)" xlink:href="#am"/><use transform="matrix(0.04938271604938272,0,0,0.04938271604938272,11.851851851851853,0)" xlink:href="#an"/></g><path fill="#333" d="M33 0v-248h34V0H33" id="ao"/><path fill="#333" d="M85-194c31 0 48 13 60 33l-1-100h32l1 261h-30c-2-10 0-23-3-31C134-8 116 4 85 4 32 4 16-35 15-94c0-66 23-100 70-100zm9 24c-40 0-46 34-46 75 0 40 6 74 45 74 42 0 51-32 51-76 0-42-9-74-50-73" id="ap"/><g id="c"><use transform="matrix(0.04938271604938272,0,0,0.04938271604938272,0,0)" xlink:href="#ao"/><use transform="matrix(0.04938271604938272,0,0,0.04938271604938272,4.938271604938272,0)" xlink:href="#ap"/></g><path fill="#333" d="M117-194c89-4 53 116 60 194h-32v-121c0-31-8-49-39-48C34-167 62-67 57 0H25l-1-190h30c1 10-1 24 2 32 11-22 29-35 61-36" id="aq"/><path fill="#333" d="M59-47c-2 24 18 29 38 22v24C64 9 27 4 27-40v-127H5v-23h24l9-43h21v43h35v23H59v120" id="ar"/><g id="d"><use transform="matrix(0.04938271604938272,0,0,0.04938271604938272,0,0)" xlink:href="#ao"/><use transform="matrix(0.04938271604938272,0,0,0.04938271604938272,4.938271604938272,0)" xlink:href="#aq"/><use transform="matrix(0.04938271604938272,0,0,0.04938271604938272,14.814814814814817,0)" xlink:href="#ar"/></g><path fill="#333" d="M101-234c-31-9-42 10-38 44h38v23H63V0H32v-167H5v-23h27c-7-52 17-82 69-68v24" id="as"/><path fill="#333" d="M190 0L58-211 59 0H30v-248h39L202-35l-2-213h31V0h-41" id="at"/><path fill="#333" d="M141-36C126-15 110 5 73 4 37 3 15-17 15-53c-1-64 63-63 125-63 3-35-9-54-41-54-24 1-41 7-42 31l-33-3c5-37 33-52 76-52 45 0 72 20 72 64v82c-1 20 7 32 28 27v20c-31 9-61-2-59-35zM48-53c0 20 12 33 32 33 41-3 63-29 60-74-43 2-92-5-92 41" id="au"/><path fill="#333" d="M210-169c-67 3-38 105-44 169h-31v-121c0-29-5-50-35-48C34-165 62-65 56 0H25l-1-190h30c1 10-1 24 2 32 10-44 99-50 107 0 11-21 27-35 58-36 85-2 47 119 55 194h-31v-121c0-29-5-49-35-48" id="av"/><g id="e"><use transform="matrix(0.04938271604938272,0,0,0.04938271604938272,0,0)" xlink:href="#as"/><use transform="matrix(0.04938271604938272,0,0,0.04938271604938272,4.938271604938272,0)" xlink:href="#at"/><use transform="matrix(0.04938271604938272,0,0,0.04938271604938272,17.7283950617284,0)" xlink:href="#au"/><use transform="matrix(0.04938271604938272,0,0,0.04938271604938272,27.604938271604947,0)" xlink:href="#av"/><use transform="matrix(0.04938271604938272,0,0,0.04938271604938272,42.37037037037038,0)" xlink:href="#ak"/></g><path fill="#333" d="M108 0H70L1-190h34L89-25l56-165h34" id="aw"/><path fill="#333" d="M96-169c-40 0-48 33-48 73s9 75 48 75c24 0 41-14 43-38l32 2c-6 37-31 61-74 61-59 0-76-41-82-99-10-93 101-131 147-64 4 7 5 14 7 22l-32 3c-4-21-16-35-41-35" id="ax"/><path fill="#333" d="M106-169C34-169 62-67 57 0H25v-261h32l-1 103c12-21 28-36 61-36 89 0 53 116 60 194h-32v-121c2-32-8-49-39-48" id="ay"/><path fill="#333" d="M87 75C49 33 22-17 22-94c0-76 28-126 65-167h31c-38 41-64 92-64 168S80 34 118 75H87" id="az"/><path fill="#333" d="M101-251c82-7 93 87 43 132L82-64C71-53 59-42 53-27h129V0H18c2-99 128-94 128-182 0-28-16-43-45-43s-46 15-49 41l-32-3c6-41 34-60 81-64" id="aA"/><path fill="#333" d="M54-142c48-35 137-8 131 61C196 18 31 33 14-55l32-4c7 23 22 37 52 37 35-1 51-22 54-58 4-55-73-65-99-34H22l8-134h141v27H59" id="aB"/><path fill="#333" d="M33-261c38 41 65 92 65 168S71 34 33 75H2C39 34 66-17 66-93S39-220 2-261h31" id="aC"/><g id="f"><use transform="matrix(0.04938271604938272,0,0,0.04938271604938272,0,0)" xlink:href="#aw"/><use transform="matrix(0.04938271604938272,0,0,0.04938271604938272,8.88888888888889,0)" xlink:href="#au"/><use transform="matrix(0.04938271604938272,0,0,0.04938271604938272,18.765432098765434,0)" xlink:href="#al"/><use transform="matrix(0.04938271604938272,0,0,0.04938271604938272,24.641975308641978,0)" xlink:href="#ax"/><use transform="matrix(0.04938271604938272,0,0,0.04938271604938272,33.53086419753087,0)" xlink:href="#ay"/><use transform="matrix(0.04938271604938272,0,0,0.04938271604938272,43.40740740740741,0)" xlink:href="#au"/><use transform="matrix(0.04938271604938272,0,0,0.04938271604938272,53.283950617283956,0)" xlink:href="#al"/><use transform="matrix(0.04938271604938272,0,0,0.04938271604938272,59.1604938271605,0)" xlink:href="#az"/><use transform="matrix(0.04938271604938272,0,0,0.04938271604938272,65.03703703703704,0)" xlink:href="#aA"/><use transform="matrix(0.04938271604938272,0,0,0.04938271604938272,74.91358024691358,0)" xlink:href="#aB"/><use transform="matrix(0.04938271604938272,0,0,0.04938271604938272,84.79012345679013,0)" xlink:href="#aC"/></g><path fill="#333" d="M24 0v-261h32V0H24" id="aD"/><g id="g"><use transform="matrix(0.04938271604938272,0,0,0.04938271604938272,0,0)" xlink:href="#aD"/><use transform="matrix(0.04938271604938272,0,0,0.04938271604938272,3.901234567901235,0)" xlink:href="#at"/><use transform="matrix(0.04938271604938272,0,0,0.04938271604938272,16.69135802469136,0)" xlink:href="#au"/><use transform="matrix(0.04938271604938272,0,0,0.04938271604938272,26.567901234567902,0)" xlink:href="#av"/><use transform="matrix(0.04938271604938272,0,0,0.04938271604938272,41.33333333333334,0)" xlink:href="#ak"/></g><path d="M177-190C167-65 218 103 67 71c-23-6-38-20-44-43l32-5c15 47 100 32 89-28v-30C133-14 115 1 83 1 29 1 15-40 15-95c0-56 16-97 71-98 29-1 48 16 59 35 1-10 0-23 2-32h30zM94-22c36 0 50-32 50-73 0-42-14-75-50-75-39 0-46 34-46 75s6 73 46 73" id="aE"/><path d="M100-194c63 0 86 42 84 106H49c0 40 14 67 53 68 26 1 43-12 49-29l28 8c-11 28-37 45-77 45C44 4 14-33 15-96c1-61 26-98 85-98zm52 81c6-60-76-77-97-28-3 7-6 17-6 28h103" id="aF"/><path d="M117-194c89-4 53 116 60 194h-32v-121c0-31-8-49-39-48C34-167 62-67 57 0H25l-1-190h30c1 10-1 24 2 32 11-22 29-35 61-36" id="aG"/><path d="M85-194c31 0 48 13 60 33l-1-100h32l1 261h-30c-2-10 0-23-3-31C134-8 116 4 85 4 32 4 16-35 15-94c0-66 23-100 70-100zm9 24c-40 0-46 34-46 75 0 40 6 74 45 74 42 0 51-32 51-76 0-42-9-74-50-73" id="aH"/><path d="M114-163C36-179 61-72 57 0H25l-1-190h30c1 12-1 29 2 39 6-27 23-49 58-41v29" id="aI"/><g id="h"><use transform="matrix(0.05,0,0,0.05,0,0)" xlink:href="#aE"/><use transform="matrix(0.05,0,0,0.05,10,0)" xlink:href="#aF"/><use transform="matrix(0.05,0,0,0.05,20,0)" xlink:href="#aG"/><use transform="matrix(0.05,0,0,0.05,30,0)" xlink:href="#aH"/><use transform="matrix(0.05,0,0,0.05,40,0)" xlink:href="#aF"/><use transform="matrix(0.05,0,0,0.05,50,0)" xlink:href="#aI"/></g><path d="M108 0H70L1-190h34L89-25l56-165h34" id="aJ"/><path d="M141-36C126-15 110 5 73 4 37 3 15-17 15-53c-1-64 63-63 125-63 3-35-9-54-41-54-24 1-41 7-42 31l-33-3c5-37 33-52 76-52 45 0 72 20 72 64v82c-1 20 7 32 28 27v20c-31 9-61-2-59-35zM48-53c0 20 12 33 32 33 41-3 63-29 60-74-43 2-92-5-92 41" id="aK"/><path d="M96-169c-40 0-48 33-48 73s9 75 48 75c24 0 41-14 43-38l32 2c-6 37-31 61-74 61-59 0-76-41-82-99-10-93 101-131 147-64 4 7 5 14 7 22l-32 3c-4-21-16-35-41-35" id="aL"/><path d="M106-169C34-169 62-67 57 0H25v-261h32l-1 103c12-21 28-36 61-36 89 0 53 116 60 194h-32v-121c2-32-8-49-39-48" id="aM"/><path d="M87 75C49 33 22-17 22-94c0-76 28-126 65-167h31c-38 41-64 92-64 168S80 34 118 75H87" id="aN"/><path d="M27 0v-27h64v-190l-56 39v-29l58-41h29v221h61V0H27" id="aO"/><path d="M101-251c68 0 85 55 85 127S166 4 100 4C33 4 14-52 14-124c0-73 17-127 87-127zm-1 229c47 0 54-49 54-102s-4-102-53-102c-51 0-55 48-55 102 0 53 5 102 54 102" id="aP"/><path d="M33-261c38 41 65 92 65 168S71 34 33 75H2C39 34 66-17 66-93S39-220 2-261h31" id="aQ"/><g id="i"><use transform="matrix(0.05,0,0,0.05,0,0)" xlink:href="#aJ"/><use transform="matrix(0.05,0,0,0.05,9,0)" xlink:href="#aK"/><use transform="matrix(0.05,0,0,0.05,19,0)" xlink:href="#aI"/><use transform="matrix(0.05,0,0,0.05,24.95,0)" xlink:href="#aL"/><use transform="matrix(0.05,0,0,0.05,33.95,0)" xlink:href="#aM"/><use transform="matrix(0.05,0,0,0.05,43.95,0)" xlink:href="#aK"/><use transform="matrix(0.05,0,0,0.05,53.95,0)" xlink:href="#aI"/><use transform="matrix(0.05,0,0,0.05,59.900000000000006,0)" xlink:href="#aN"/><use transform="matrix(0.05,0,0,0.05,65.85000000000001,0)" xlink:href="#aO"/><use transform="matrix(0.05,0,0,0.05,75.85000000000001,0)" xlink:href="#aP"/><use transform="matrix(0.05,0,0,0.05,85.85000000000001,0)" xlink:href="#aQ"/></g><path d="M210-169c-67 3-38 105-44 169h-31v-121c0-29-5-50-35-48C34-165 62-65 56 0H25l-1-190h30c1 10-1 24 2 32 10-44 99-50 107 0 11-21 27-35 58-36 85-2 47 119 55 194h-31v-121c0-29-5-49-35-48" id="aR"/><path d="M24-231v-30h32v30H24zM24 0v-190h32V0H24" id="aS"/><path d="M24 0v-261h32V0H24" id="aT"/><g id="j"><use transform="matrix(0.05,0,0,0.05,0,0)" xlink:href="#aF"/><use transform="matrix(0.05,0,0,0.05,10,0)" xlink:href="#aR"/><use transform="matrix(0.05,0,0,0.05,24.950000000000003,0)" xlink:href="#aK"/><use transform="matrix(0.05,0,0,0.05,34.95,0)" xlink:href="#aS"/><use transform="matrix(0.05,0,0,0.05,38.900000000000006,0)" xlink:href="#aT"/></g><path d="M64 0c3-98 48-159 88-221H18v-27h164v26C143-157 98-101 97 0H64" id="aU"/><path d="M54-142c48-35 137-8 131 61C196 18 31 33 14-55l32-4c7 23 22 37 52 37 35-1 51-22 54-58 4-55-73-65-99-34H22l8-134h141v27H59" id="aV"/><g id="k"><use transform="matrix(0.05,0,0,0.05,0,0)" xlink:href="#aJ"/><use transform="matrix(0.05,0,0,0.05,9,0)" xlink:href="#aK"/><use transform="matrix(0.05,0,0,0.05,19,0)" xlink:href="#aI"/><use transform="matrix(0.05,0,0,0.05,24.95,0)" xlink:href="#aL"/><use transform="matrix(0.05,0,0,0.05,33.95,0)" xlink:href="#aM"/><use transform="matrix(0.05,0,0,0.05,43.95,0)" xlink:href="#aK"/><use transform="matrix(0.05,0,0,0.05,53.95,0)" xlink:href="#aI"/><use transform="matrix(0.05,0,0,0.05,59.900000000000006,0)" xlink:href="#aN"/><use transform="matrix(0.05,0,0,0.05,65.85000000000001,0)" xlink:href="#aU"/><use transform="matrix(0.05,0,0,0.05,75.85000000000001,0)" xlink:href="#aV"/><use transform="matrix(0.05,0,0,0.05,85.85000000000001,0)" xlink:href="#aQ"/></g><path d="M115-194c55 1 70 41 70 98S169 2 115 4C84 4 66-9 55-30l1 105H24l-1-265h31l2 30c10-21 28-34 59-34zm-8 174c40 0 45-34 45-75s-6-73-45-74c-42 0-51 32-51 76 0 43 10 73 51 73" id="aW"/><path d="M135-143c-3-34-86-38-87 0 15 53 115 12 119 90S17 21 10-45l28-5c4 36 97 45 98 0-10-56-113-15-118-90-4-57 82-63 122-42 12 7 21 19 24 35" id="aX"/><path d="M206 0h-36l-40-164L89 0H53L-1-190h32L70-26l43-164h34l41 164 42-164h31" id="aY"/><path d="M100-194c62-1 85 37 85 99 1 63-27 99-86 99S16-35 15-95c0-66 28-99 85-99zM99-20c44 1 53-31 53-75 0-43-8-75-51-75s-53 32-53 75 10 74 51 75" id="aZ"/><g id="l"><use transform="matrix(0.05,0,0,0.05,0,0)" xlink:href="#aW"/><use transform="matrix(0.05,0,0,0.05,10,0)" xlink:href="#aK"/><use transform="matrix(0.05,0,0,0.05,20,0)" xlink:href="#aX"/><use transform="matrix(0.05,0,0,0.05,29,0)" xlink:href="#aX"/><use transform="matrix(0.05,0,0,0.05,38,0)" xlink:href="#aY"/><use transform="matrix(0.05,0,0,0.05,50.95,0)" xlink:href="#aZ"/><use transform="matrix(0.05,0,0,0.05,60.95,0)" xlink:href="#aI"/><use transform="matrix(0.05,0,0,0.05,66.9,0)" xlink:href="#aH"/></g><path d="M126-127c33 6 58 20 58 59 0 88-139 92-164 29-3-8-5-16-6-25l32-3c6 27 21 44 54 44 32 0 52-15 52-46 0-38-36-46-79-43v-28c39 1 72-4 72-42 0-27-17-43-46-43-28 0-47 15-49 41l-32-3c6-42 35-63 81-64 48-1 79 21 79 65 0 36-21 52-52 59" id="ba"/><g id="m"><use transform="matrix(0.05,0,0,0.05,0,0)" xlink:href="#aJ"/><use transform="matrix(0.05,0,0,0.05,9,0)" xlink:href="#aK"/><use transform="matrix(0.05,0,0,0.05,19,0)" xlink:href="#aI"/><use transform="matrix(0.05,0,0,0.05,24.95,0)" xlink:href="#aL"/><use transform="matrix(0.05,0,0,0.05,33.95,0)" xlink:href="#aM"/><use transform="matrix(0.05,0,0,0.05,43.95,0)" xlink:href="#aK"/><use transform="matrix(0.05,0,0,0.05,53.95,0)" xlink:href="#aI"/><use transform="matrix(0.05,0,0,0.05,59.900000000000006,0)" xlink:href="#aN"/><use transform="matrix(0.05,0,0,0.05,65.85000000000001,0)" xlink:href="#ba"/><use transform="matrix(0.05,0,0,0.05,75.85000000000001,0)" xlink:href="#aP"/><use transform="matrix(0.05,0,0,0.05,85.85000000000001,0)" xlink:href="#aQ"/></g><path d="M115-194c53 0 69 39 70 98 0 66-23 100-70 100C84 3 66-7 56-30L54 0H23l1-261h32v101c10-23 28-34 59-34zm-8 174c40 0 45-34 45-75 0-40-5-75-45-74-42 0-51 32-51 76 0 43 10 73 51 73" id="bb"/><g id="n"><use transform="matrix(0.05,0,0,0.05,0,0)" xlink:href="#aH"/><use transform="matrix(0.05,0,0,0.05,10,0)" xlink:href="#aZ"/><use transform="matrix(0.05,0,0,0.05,20,0)" xlink:href="#bb"/></g><path d="M30-248c118-7 216 8 213 122C240-48 200 0 122 0H30v-248zM63-27c89 8 146-16 146-99s-60-101-146-95v194" id="bc"/><path d="M59-47c-2 24 18 29 38 22v24C64 9 27 4 27-40v-127H5v-23h24l9-43h21v43h35v23H59v120" id="bd"/><g id="o"><use transform="matrix(0.05,0,0,0.05,0,0)" xlink:href="#bc"/><use transform="matrix(0.05,0,0,0.05,12.950000000000001,0)" xlink:href="#aK"/><use transform="matrix(0.05,0,0,0.05,22.950000000000003,0)" xlink:href="#bd"/><use transform="matrix(0.05,0,0,0.05,27.950000000000003,0)" xlink:href="#aF"/></g><path d="M127-220V0H93v-220H8v-28h204v28h-85" id="be"/><path d="M179-190L93 31C79 59 56 82 12 73V49c39 6 53-20 64-50L1-190h34L92-34l54-156h33" id="bf"/><g id="p"><use transform="matrix(0.05,0,0,0.05,0,0)" xlink:href="#aI"/><use transform="matrix(0.05,0,0,0.05,5.95,0)" xlink:href="#aZ"/><use transform="matrix(0.05,0,0,0.05,15.949999999999998,0)" xlink:href="#aT"/><use transform="matrix(0.05,0,0,0.05,19.9,0)" xlink:href="#aF"/><use transform="matrix(0.05,0,0,0.05,29.899999999999995,0)" xlink:href="#be"/><use transform="matrix(0.05,0,0,0.05,39.85,0)" xlink:href="#bf"/><use transform="matrix(0.05,0,0,0.05,48.85,0)" xlink:href="#aW"/><use transform="matrix(0.05,0,0,0.05,58.85,0)" xlink:href="#aF"/></g><path fill="#333" d="M30-248c118-7 216 8 213 122C240-48 200 0 122 0H30v-248zM63-27c89 8 146-16 146-99s-60-101-146-95v194" id="bg"/><path fill="#333" d="M100-194c62-1 85 37 85 99 1 63-27 99-86 99S16-35 15-95c0-66 28-99 85-99zM99-20c44 1 53-31 53-75 0-43-8-75-51-75s-53 32-53 75 10 74 51 75" id="bh"/><path fill="#333" d="M205 0l-28-72H64L36 0H1l101-248h38L239 0h-34zm-38-99l-47-123c-12 45-31 82-46 123h93" id="bi"/><path fill="#333" d="M115-194c55 1 70 41 70 98S169 2 115 4C84 4 66-9 55-30l1 105H24l-1-265h31l2 30c10-21 28-34 59-34zm-8 174c40 0 45-34 45-75s-6-73-45-74c-42 0-51 32-51 76 0 43 10 73 51 73" id="bj"/><path fill="#333" d="M24-231v-30h32v30H24zM24 0v-190h32V0H24" id="bk"/><g id="q"><use transform="matrix(0.04938271604938272,0,0,0.04938271604938272,0,0)" xlink:href="#bg"/><use transform="matrix(0.04938271604938272,0,0,0.04938271604938272,12.790123456790125,0)" xlink:href="#bh"/><use transform="matrix(0.04938271604938272,0,0,0.04938271604938272,22.66666666666667,0)" xlink:href="#ax"/><use transform="matrix(0.04938271604938272,0,0,0.04938271604938272,31.555555555555557,0)" xlink:href="#ar"/><use transform="matrix(0.04938271604938272,0,0,0.04938271604938272,36.49382716049384,0)" xlink:href="#bh"/><use transform="matrix(0.04938271604938272,0,0,0.04938271604938272,46.37037037037038,0)" xlink:href="#al"/><use transform="matrix(0.04938271604938272,0,0,0.04938271604938272,52.24691358024693,0)" xlink:href="#bi"/><use transform="matrix(0.04938271604938272,0,0,0.04938271604938272,64.09876543209877,0)" xlink:href="#bj"/><use transform="matrix(0.04938271604938272,0,0,0.04938271604938272,73.97530864197532,0)" xlink:href="#bj"/><use transform="matrix(0.04938271604938272,0,0,0.04938271604938272,83.85185185185186,0)" xlink:href="#aD"/><use transform="matrix(0.04938271604938272,0,0,0.04938271604938272,87.7530864197531,0)" xlink:href="#bk"/><use transform="matrix(0.04938271604938272,0,0,0.04938271604938272,91.65432098765434,0)" xlink:href="#ax"/><use transform="matrix(0.04938271604938272,0,0,0.04938271604938272,100.54320987654323,0)" xlink:href="#au"/><use transform="matrix(0.04938271604938272,0,0,0.04938271604938272,110.41975308641979,0)" xlink:href="#ar"/><use transform="matrix(0.04938271604938272,0,0,0.04938271604938272,115.35802469135805,0)" xlink:href="#bk"/><use transform="matrix(0.04938271604938272,0,0,0.04938271604938272,119.2592592592593,0)" xlink:href="#bh"/><use transform="matrix(0.04938271604938272,0,0,0.04938271604938272,129.13580246913585,0)" xlink:href="#aq"/></g><path fill="#333" d="M63-220v92h138v28H63V0H30v-248h175v28H63" id="bl"/><g id="r"><use transform="matrix(0.04938271604938272,0,0,0.04938271604938272,0,0)" xlink:href="#bl"/><use transform="matrix(0.04938271604938272,0,0,0.04938271604938272,10.814814814814815,0)" xlink:href="#an"/></g><g id="s"><use transform="matrix(0.04938271604938272,0,0,0.04938271604938272,0,0)" xlink:href="#ai"/><use transform="matrix(0.04938271604938272,0,0,0.04938271604938272,12.790123456790125,0)" xlink:href="#aj"/><use transform="matrix(0.04938271604938272,0,0,0.04938271604938272,21.679012345679013,0)" xlink:href="#ak"/><use transform="matrix(0.04938271604938272,0,0,0.04938271604938272,31.555555555555557,0)" xlink:href="#al"/><use transform="matrix(0.04938271604938272,0,0,0.04938271604938272,37.4320987654321,0)" xlink:href="#ao"/><use transform="matrix(0.04938271604938272,0,0,0.04938271604938272,42.370370370370374,0)" xlink:href="#bg"/></g><g id="t"><use transform="matrix(0.04938271604938272,0,0,0.04938271604938272,0,0)" xlink:href="#au"/><use transform="matrix(0.04938271604938272,0,0,0.04938271604938272,9.876543209876544,0)" xlink:href="#bj"/><use transform="matrix(0.04938271604938272,0,0,0.04938271604938272,19.75308641975309,0)" xlink:href="#bj"/><use transform="matrix(0.04938271604938272,0,0,0.04938271604938272,29.629629629629633,0)" xlink:href="#bg"/><use transform="matrix(0.04938271604938272,0,0,0.04938271604938272,42.41975308641976,0)" xlink:href="#au"/><use transform="matrix(0.04938271604938272,0,0,0.04938271604938272,52.2962962962963,0)" xlink:href="#ar"/><use transform="matrix(0.04938271604938272,0,0,0.04938271604938272,57.23456790123457,0)" xlink:href="#ak"/></g><path fill="#333" d="M127-220V0H93v-220H8v-28h204v28h-85" id="bm"/><g id="u"><use transform="matrix(0.04938271604938272,0,0,0.04938271604938272,0,0)" xlink:href="#bg"/><use transform="matrix(0.04938271604938272,0,0,0.04938271604938272,12.790123456790125,0)" xlink:href="#au"/><use transform="matrix(0.04938271604938272,0,0,0.04938271604938272,22.66666666666667,0)" xlink:href="#ar"/><use transform="matrix(0.04938271604938272,0,0,0.04938271604938272,27.604938271604947,0)" xlink:href="#ak"/><use transform="matrix(0.04938271604938272,0,0,0.04938271604938272,37.48148148148149,0)" xlink:href="#bm"/><use transform="matrix(0.04938271604938272,0,0,0.04938271604938272,47.65432098765433,0)" xlink:href="#bk"/><use transform="matrix(0.04938271604938272,0,0,0.04938271604938272,51.55555555555556,0)" xlink:href="#av"/><use transform="matrix(0.04938271604938272,0,0,0.04938271604938272,66.320987654321,0)" xlink:href="#ak"/></g><path d="M84 4C-5 8 30-112 23-190h32v120c0 31 7 50 39 49 72-2 45-101 50-169h31l1 190h-30c-1-10 1-25-2-33-11 22-28 36-60 37" id="bn"/><g id="v"><use transform="matrix(0.05,0,0,0.05,0,0)" xlink:href="#aX"/><use transform="matrix(0.05,0,0,0.05,9,0)" xlink:href="#bd"/><use transform="matrix(0.05,0,0,0.05,14,0)" xlink:href="#aK"/><use transform="matrix(0.05,0,0,0.05,24,0)" xlink:href="#bd"/><use transform="matrix(0.05,0,0,0.05,29,0)" xlink:href="#bn"/><use transform="matrix(0.05,0,0,0.05,39,0)" xlink:href="#aX"/></g><g id="w"><use transform="matrix(0.05,0,0,0.05,0,0)" xlink:href="#aJ"/><use transform="matrix(0.05,0,0,0.05,9,0)" xlink:href="#aK"/><use transform="matrix(0.05,0,0,0.05,19,0)" xlink:href="#aI"/><use transform="matrix(0.05,0,0,0.05,24.95,0)" xlink:href="#aL"/><use transform="matrix(0.05,0,0,0.05,33.95,0)" xlink:href="#aM"/><use transform="matrix(0.05,0,0,0.05,43.95,0)" xlink:href="#aK"/><use transform="matrix(0.05,0,0,0.05,53.95,0)" xlink:href="#aI"/><use transform="matrix(0.05,0,0,0.05,59.900000000000006,0)" xlink:href="#aN"/><use transform="matrix(0.05,0,0,0.05,65.85000000000001,0)" xlink:href="#aO"/><use transform="matrix(0.05,0,0,0.05,75.85000000000001,0)" xlink:href="#aV"/><use transform="matrix(0.05,0,0,0.05,85.85000000000001,0)" xlink:href="#aQ"/></g><g id="x"><use transform="matrix(0.04938271604938272,0,0,0.04938271604938272,0,0)" xlink:href="#bi"/><use transform="matrix(0.04938271604938272,0,0,0.04938271604938272,11.851851851851853,0)" xlink:href="#ap"/><use transform="matrix(0.04938271604938272,0,0,0.04938271604938272,21.7283950617284,0)" xlink:href="#av"/><use transform="matrix(0.04938271604938272,0,0,0.04938271604938272,36.49382716049384,0)" xlink:href="#bk"/><use transform="matrix(0.04938271604938272,0,0,0.04938271604938272,40.39506172839507,0)" xlink:href="#aq"/></g><path fill="#333" d="M84 4C-5 8 30-112 23-190h32v120c0 31 7 50 39 49 72-2 45-101 50-169h31l1 190h-30c-1-10 1-25-2-33-11 22-28 36-60 37" id="bo"/><g id="y"><use transform="matrix(0.04938271604938272,0,0,0.04938271604938272,0,0)" xlink:href="#bl"/><use transform="matrix(0.04938271604938272,0,0,0.04938271604938272,10.814814814814815,0)" xlink:href="#bo"/><use transform="matrix(0.04938271604938272,0,0,0.04938271604938272,20.69135802469136,0)" xlink:href="#aD"/><use transform="matrix(0.04938271604938272,0,0,0.04938271604938272,24.592592592592595,0)" xlink:href="#aD"/><use transform="matrix(0.04938271604938272,0,0,0.04938271604938272,28.49382716049383,0)" xlink:href="#at"/><use transform="matrix(0.04938271604938272,0,0,0.04938271604938272,41.283950617283956,0)" xlink:href="#au"/><use transform="matrix(0.04938271604938272,0,0,0.04938271604938272,51.1604938271605,0)" xlink:href="#av"/><use transform="matrix(0.04938271604938272,0,0,0.04938271604938272,65.92592592592594,0)" xlink:href="#ak"/></g><path fill="#333" d="M101-251c68 0 85 55 85 127S166 4 100 4C33 4 14-52 14-124c0-73 17-127 87-127zm-1 229c47 0 54-49 54-102s-4-102-53-102c-51 0-55 48-55 102 0 53 5 102 54 102" id="bp"/><g id="z"><use transform="matrix(0.04938271604938272,0,0,0.04938271604938272,0,0)" xlink:href="#aw"/><use transform="matrix(0.04938271604938272,0,0,0.04938271604938272,8.88888888888889,0)" xlink:href="#au"/><use transform="matrix(0.04938271604938272,0,0,0.04938271604938272,18.765432098765434,0)" xlink:href="#al"/><use transform="matrix(0.04938271604938272,0,0,0.04938271604938272,24.641975308641978,0)" xlink:href="#ax"/><use transform="matrix(0.04938271604938272,0,0,0.04938271604938272,33.53086419753087,0)" xlink:href="#ay"/><use transform="matrix(0.04938271604938272,0,0,0.04938271604938272,43.40740740740741,0)" xlink:href="#au"/><use transform="matrix(0.04938271604938272,0,0,0.04938271604938272,53.283950617283956,0)" xlink:href="#al"/><use transform="matrix(0.04938271604938272,0,0,0.04938271604938272,59.1604938271605,0)" xlink:href="#az"/><use transform="matrix(0.04938271604938272,0,0,0.04938271604938272,65.03703703703704,0)" xlink:href="#aB"/><use transform="matrix(0.04938271604938272,0,0,0.04938271604938272,74.91358024691358,0)" xlink:href="#bp"/><use transform="matrix(0.04938271604938272,0,0,0.04938271604938272,84.79012345679013,0)" xlink:href="#aC"/></g><g id="A"><use transform="matrix(0.04938271604938272,0,0,0.04938271604938272,0,0)" xlink:href="#ak"/><use transform="matrix(0.04938271604938272,0,0,0.04938271604938272,9.876543209876544,0)" xlink:href="#av"/><use transform="matrix(0.04938271604938272,0,0,0.04938271604938272,24.641975308641978,0)" xlink:href="#au"/><use transform="matrix(0.04938271604938272,0,0,0.04938271604938272,34.51851851851852,0)" xlink:href="#bk"/><use transform="matrix(0.04938271604938272,0,0,0.04938271604938272,38.41975308641975,0)" xlink:href="#aD"/></g><path fill="#333" d="M64 0c3-98 48-159 88-221H18v-27h164v26C143-157 98-101 97 0H64" id="bq"/><g id="B"><use transform="matrix(0.04938271604938272,0,0,0.04938271604938272,0,0)" xlink:href="#aw"/><use transform="matrix(0.04938271604938272,0,0,0.04938271604938272,8.88888888888889,0)" xlink:href="#au"/><use transform="matrix(0.04938271604938272,0,0,0.04938271604938272,18.765432098765434,0)" xlink:href="#al"/><use transform="matrix(0.04938271604938272,0,0,0.04938271604938272,24.641975308641978,0)" xlink:href="#ax"/><use transform="matrix(0.04938271604938272,0,0,0.04938271604938272,33.53086419753087,0)" xlink:href="#ay"/><use transform="matrix(0.04938271604938272,0,0,0.04938271604938272,43.40740740740741,0)" xlink:href="#au"/><use transform="matrix(0.04938271604938272,0,0,0.04938271604938272,53.283950617283956,0)" xlink:href="#al"/><use transform="matrix(0.04938271604938272,0,0,0.04938271604938272,59.1604938271605,0)" xlink:href="#az"/><use transform="matrix(0.04938271604938272,0,0,0.04938271604938272,65.03703703703704,0)" xlink:href="#bq"/><use transform="matrix(0.04938271604938272,0,0,0.04938271604938272,74.91358024691358,0)" xlink:href="#aB"/><use transform="matrix(0.04938271604938272,0,0,0.04938271604938272,84.79012345679013,0)" xlink:href="#aC"/></g><path fill="#333" d="M137 0h-34L2-248h35l83 218 83-218h36" id="br"/><g id="C"><use transform="matrix(0.04938271604938272,0,0,0.04938271604938272,0,0)" xlink:href="#br"/><use transform="matrix(0.04938271604938272,0,0,0.04938271604938272,11.506172839506174,0)" xlink:href="#bk"/><use transform="matrix(0.04938271604938272,0,0,0.04938271604938272,15.407407407407408,0)" xlink:href="#ap"/><use transform="matrix(0.04938271604938272,0,0,0.04938271604938272,25.283950617283953,0)" xlink:href="#ak"/><use transform="matrix(0.04938271604938272,0,0,0.04938271604938272,35.160493827160494,0)" xlink:href="#bh"/></g><g id="D"><use transform="matrix(0.04938271604938272,0,0,0.04938271604938272,0,0)" xlink:href="#bi"/><use transform="matrix(0.04938271604938272,0,0,0.04938271604938272,11.851851851851853,0)" xlink:href="#ap"/><use transform="matrix(0.04938271604938272,0,0,0.04938271604938272,21.7283950617284,0)" xlink:href="#av"/><use transform="matrix(0.04938271604938272,0,0,0.04938271604938272,36.49382716049384,0)" xlink:href="#bk"/><use transform="matrix(0.04938271604938272,0,0,0.04938271604938272,40.39506172839507,0)" xlink:href="#aq"/><use transform="matrix(0.04938271604938272,0,0,0.04938271604938272,50.271604938271615,0)" xlink:href="#ao"/><use transform="matrix(0.04938271604938272,0,0,0.04938271604938272,55.209876543209894,0)" xlink:href="#bg"/></g><g id="E"><use transform="matrix(0.04938271604938272,0,0,0.04938271604938272,0,0)" xlink:href="#ar"/><use transform="matrix(0.04938271604938272,0,0,0.04938271604938272,4.938271604938272,0)" xlink:href="#bk"/><use transform="matrix(0.04938271604938272,0,0,0.04938271604938272,8.839506172839506,0)" xlink:href="#ar"/><use transform="matrix(0.04938271604938272,0,0,0.04938271604938272,13.777777777777779,0)" xlink:href="#aD"/><use transform="matrix(0.04938271604938272,0,0,0.04938271604938272,17.679012345679013,0)" xlink:href="#ak"/></g><path d="M232-93c-1 65-40 97-104 97C67 4 28-28 28-90v-158h33c8 89-33 224 67 224 102 0 64-133 71-224h33v155" id="bs"/><path d="M233-177c-1 41-23 64-60 70L243 0h-38l-65-103H63V0H30v-248c88 3 205-21 203 71zM63-129c60-2 137 13 137-47 0-61-80-42-137-45v92" id="bt"/><path d="M30 0v-248h33v221h125V0H30" id="bu"/><g id="F"><use transform="matrix(0.05,0,0,0.05,0,0)" xlink:href="#bs"/><use transform="matrix(0.05,0,0,0.05,12.950000000000001,0)" xlink:href="#bt"/><use transform="matrix(0.05,0,0,0.05,25.900000000000002,0)" xlink:href="#bu"/></g><path d="M101-251c82-7 93 87 43 132L82-64C71-53 59-42 53-27h129V0H18c2-99 128-94 128-182 0-28-16-43-45-43s-46 15-49 41l-32-3c6-41 34-60 81-64" id="bv"/><g id="G"><use transform="matrix(0.05,0,0,0.05,0,0)" xlink:href="#aJ"/><use transform="matrix(0.05,0,0,0.05,9,0)" xlink:href="#aK"/><use transform="matrix(0.05,0,0,0.05,19,0)" xlink:href="#aI"/><use transform="matrix(0.05,0,0,0.05,24.95,0)" xlink:href="#aL"/><use transform="matrix(0.05,0,0,0.05,33.95,0)" xlink:href="#aM"/><use transform="matrix(0.05,0,0,0.05,43.95,0)" xlink:href="#aK"/><use transform="matrix(0.05,0,0,0.05,53.95,0)" xlink:href="#aI"/><use transform="matrix(0.05,0,0,0.05,59.900000000000006,0)" xlink:href="#aN"/><use transform="matrix(0.05,0,0,0.05,65.85000000000001,0)" xlink:href="#bv"/><use transform="matrix(0.05,0,0,0.05,75.85000000000001,0)" xlink:href="#aV"/><use transform="matrix(0.05,0,0,0.05,85.85000000000001,0)" xlink:href="#aP"/><use transform="matrix(0.05,0,0,0.05,95.85000000000001,0)" xlink:href="#aQ"/></g><path fill="#333" d="M212-179c-10-28-35-45-73-45-59 0-87 40-87 99 0 60 29 101 89 101 43 0 62-24 78-52l27 14C228-24 195 4 139 4 59 4 22-46 18-125c-6-104 99-153 187-111 19 9 31 26 39 46" id="bw"/><g id="H"><use transform="matrix(0.04938271604938272,0,0,0.04938271604938272,0,0)" xlink:href="#bw"/><use transform="matrix(0.04938271604938272,0,0,0.04938271604938272,12.790123456790125,0)" xlink:href="#bh"/><use transform="matrix(0.04938271604938272,0,0,0.04938271604938272,22.66666666666667,0)" xlink:href="#av"/><use transform="matrix(0.04938271604938272,0,0,0.04938271604938272,37.4320987654321,0)" xlink:href="#av"/><use transform="matrix(0.04938271604938272,0,0,0.04938271604938272,52.19753086419754,0)" xlink:href="#ak"/><use transform="matrix(0.04938271604938272,0,0,0.04938271604938272,62.074074074074076,0)" xlink:href="#aq"/><use transform="matrix(0.04938271604938272,0,0,0.04938271604938272,71.95061728395062,0)" xlink:href="#ar"/></g><g id="I"><use transform="matrix(0.04938271604938272,0,0,0.04938271604938272,0,0)" xlink:href="#bk"/><use transform="matrix(0.04938271604938272,0,0,0.04938271604938272,3.901234567901235,0)" xlink:href="#aq"/><use transform="matrix(0.04938271604938272,0,0,0.04938271604938272,13.777777777777779,0)" xlink:href="#ar"/></g><g id="J"><use transform="matrix(0.04938271604938272,0,0,0.04938271604938272,0,0)" xlink:href="#am"/><use transform="matrix(0.04938271604938272,0,0,0.04938271604938272,11.851851851851853,0)" xlink:href="#bh"/><use transform="matrix(0.04938271604938272,0,0,0.04938271604938272,21.7283950617284,0)" xlink:href="#aj"/><use transform="matrix(0.04938271604938272,0,0,0.04938271604938272,30.617283950617285,0)" xlink:href="#ar"/><use transform="matrix(0.04938271604938272,0,0,0.04938271604938272,35.55555555555556,0)" xlink:href="#ao"/><use transform="matrix(0.04938271604938272,0,0,0.04938271604938272,40.49382716049383,0)" xlink:href="#bg"/></g><g id="K"><use transform="matrix(0.05,0,0,0.05,0,0)" xlink:href="#aL"/><use transform="matrix(0.05,0,0,0.05,9,0)" xlink:href="#aZ"/><use transform="matrix(0.05,0,0,0.05,19,0)" xlink:href="#aR"/><use transform="matrix(0.05,0,0,0.05,33.95,0)" xlink:href="#aR"/><use transform="matrix(0.05,0,0,0.05,48.900000000000006,0)" xlink:href="#aF"/><use transform="matrix(0.05,0,0,0.05,58.900000000000006,0)" xlink:href="#aG"/><use transform="matrix(0.05,0,0,0.05,68.9,0)" xlink:href="#bd"/></g><g id="L"><use transform="matrix(0.05,0,0,0.05,0,0)" xlink:href="#aL"/><use transform="matrix(0.05,0,0,0.05,9,0)" xlink:href="#aZ"/><use transform="matrix(0.05,0,0,0.05,19,0)" xlink:href="#aR"/><use transform="matrix(0.05,0,0,0.05,33.95,0)" xlink:href="#aR"/><use transform="matrix(0.05,0,0,0.05,48.900000000000006,0)" xlink:href="#aF"/><use transform="matrix(0.05,0,0,0.05,58.900000000000006,0)" xlink:href="#aG"/><use transform="matrix(0.05,0,0,0.05,68.9,0)" xlink:href="#bd"/><use transform="matrix(0.05,0,0,0.05,73.9,0)" xlink:href="#be"/><use transform="matrix(0.05,0,0,0.05,84.2,0)" xlink:href="#aS"/><use transform="matrix(0.05,0,0,0.05,88.15,0)" xlink:href="#aR"/><use transform="matrix(0.05,0,0,0.05,103.10000000000001,0)" xlink:href="#aF"/></g><g id="M"><use transform="matrix(0.05,0,0,0.05,0,0)" xlink:href="#bc"/><use transform="matrix(0.05,0,0,0.05,12.950000000000001,0)" xlink:href="#aK"/><use transform="matrix(0.05,0,0,0.05,22.950000000000003,0)" xlink:href="#bd"/><use transform="matrix(0.05,0,0,0.05,27.950000000000003,0)" xlink:href="#aF"/><use transform="matrix(0.05,0,0,0.05,37.95,0)" xlink:href="#be"/><use transform="matrix(0.05,0,0,0.05,48.25000000000001,0)" xlink:href="#aS"/><use transform="matrix(0.05,0,0,0.05,52.20000000000002,0)" xlink:href="#aR"/><use transform="matrix(0.05,0,0,0.05,67.15,0)" xlink:href="#aF"/></g><path fill="#333" d="M143 4C61 4 22-44 18-125c-5-107 100-154 193-111 17 8 29 25 37 43l-32 9c-13-25-37-40-76-40-61 0-88 39-88 99 0 61 29 100 91 101 35 0 62-11 79-27v-45h-74v-28h105v86C228-13 192 4 143 4" id="bx"/><g id="N"><use transform="matrix(0.04938271604938272,0,0,0.04938271604938272,0,0)" xlink:href="#bx"/><use transform="matrix(0.04938271604938272,0,0,0.04938271604938272,13.827160493827162,0)" xlink:href="#al"/><use transform="matrix(0.04938271604938272,0,0,0.04938271604938272,19.703703703703706,0)" xlink:href="#bh"/><use transform="matrix(0.04938271604938272,0,0,0.04938271604938272,29.58024691358025,0)" xlink:href="#bo"/><use transform="matrix(0.04938271604938272,0,0,0.04938271604938272,39.4567901234568,0)" xlink:href="#bj"/></g><g id="O"><use transform="matrix(0.04938271604938272,0,0,0.04938271604938272,0,0)" xlink:href="#bw"/><use transform="matrix(0.04938271604938272,0,0,0.04938271604938272,12.790123456790125,0)" xlink:href="#al"/><use transform="matrix(0.04938271604938272,0,0,0.04938271604938272,18.666666666666668,0)" xlink:href="#ak"/><use transform="matrix(0.04938271604938272,0,0,0.04938271604938272,28.543209876543212,0)" xlink:href="#au"/><use transform="matrix(0.04938271604938272,0,0,0.04938271604938272,38.41975308641976,0)" xlink:href="#ar"/><use transform="matrix(0.04938271604938272,0,0,0.04938271604938272,43.35802469135803,0)" xlink:href="#bh"/><use transform="matrix(0.04938271604938272,0,0,0.04938271604938272,53.23456790123457,0)" xlink:href="#al"/><use transform="matrix(0.04938271604938272,0,0,0.04938271604938272,59.111111111111114,0)" xlink:href="#ao"/><use transform="matrix(0.04938271604938272,0,0,0.04938271604938272,64.0493827160494,0)" xlink:href="#bg"/></g><g id="P"><use transform="matrix(0.04938271604938272,0,0,0.04938271604938272,0,0)" xlink:href="#aq"/><use transform="matrix(0.04938271604938272,0,0,0.04938271604938272,9.876543209876544,0)" xlink:href="#au"/><use transform="matrix(0.04938271604938272,0,0,0.04938271604938272,19.75308641975309,0)" xlink:href="#av"/><use transform="matrix(0.04938271604938272,0,0,0.04938271604938272,34.51851851851852,0)" xlink:href="#ak"/></g><g id="Q"><use transform="matrix(0.05,0,0,0.05,0,0)" xlink:href="#aL"/><use transform="matrix(0.05,0,0,0.05,9,0)" xlink:href="#aS"/><use transform="matrix(0.05,0,0,0.05,12.949999999999998,0)" xlink:href="#bd"/><use transform="matrix(0.05,0,0,0.05,17.95,0)" xlink:href="#bf"/></g><g id="R"><use transform="matrix(0.05,0,0,0.05,0,0)" xlink:href="#aJ"/><use transform="matrix(0.05,0,0,0.05,9,0)" xlink:href="#aK"/><use transform="matrix(0.05,0,0,0.05,19,0)" xlink:href="#aI"/><use transform="matrix(0.05,0,0,0.05,24.95,0)" xlink:href="#aL"/><use transform="matrix(0.05,0,0,0.05,33.95,0)" xlink:href="#aM"/><use transform="matrix(0.05,0,0,0.05,43.95,0)" xlink:href="#aK"/><use transform="matrix(0.05,0,0,0.05,53.95,0)" xlink:href="#aI"/><use transform="matrix(0.05,0,0,0.05,59.900000000000006,0)" xlink:href="#aN"/><use transform="matrix(0.05,0,0,0.05,65.85000000000001,0)" xlink:href="#bv"/><use transform="matrix(0.05,0,0,0.05,75.85000000000001,0)" xlink:href="#aV"/><use transform="matrix(0.05,0,0,0.05,85.85000000000001,0)" xlink:href="#aQ"/></g><g id="S"><use transform="matrix(0.05,0,0,0.05,0,0)" xlink:href="#aH"/><use transform="matrix(0.05,0,0,0.05,10,0)" xlink:href="#aF"/><use transform="matrix(0.05,0,0,0.05,20,0)" xlink:href="#aX"/><use transform="matrix(0.05,0,0,0.05,29,0)" xlink:href="#aL"/><use transform="matrix(0.05,0,0,0.05,38,0)" xlink:href="#aI"/><use transform="matrix(0.05,0,0,0.05,43.95,0)" xlink:href="#aS"/><use transform="matrix(0.05,0,0,0.05,47.900000000000006,0)" xlink:href="#aW"/><use transform="matrix(0.05,0,0,0.05,57.900000000000006,0)" xlink:href="#bd"/><use transform="matrix(0.05,0,0,0.05,62.900000000000006,0)" xlink:href="#aS"/><use transform="matrix(0.05,0,0,0.05,66.85000000000001,0)" xlink:href="#aZ"/><use transform="matrix(0.05,0,0,0.05,76.85000000000001,0)" xlink:href="#aG"/></g><path fill="#333" d="M30 0v-248h33v221h125V0H30" id="by"/><g id="T"><use transform="matrix(0.04938271604938272,0,0,0.04938271604938272,0,0)" xlink:href="#by"/><use transform="matrix(0.04938271604938272,0,0,0.04938271604938272,9.876543209876544,0)" xlink:href="#ak"/><use transform="matrix(0.04938271604938272,0,0,0.04938271604938272,19.75308641975309,0)" xlink:href="#ax"/><use transform="matrix(0.04938271604938272,0,0,0.04938271604938272,28.641975308641978,0)" xlink:href="#ar"/><use transform="matrix(0.04938271604938272,0,0,0.04938271604938272,33.580246913580254,0)" xlink:href="#bo"/><use transform="matrix(0.04938271604938272,0,0,0.04938271604938272,43.4567901234568,0)" xlink:href="#al"/><use transform="matrix(0.04938271604938272,0,0,0.04938271604938272,49.33333333333334,0)" xlink:href="#ak"/></g><g id="U"><use transform="matrix(0.04938271604938272,0,0,0.04938271604938272,0,0)" xlink:href="#bg"/><use transform="matrix(0.04938271604938272,0,0,0.04938271604938272,12.790123456790125,0)" xlink:href="#bh"/><use transform="matrix(0.04938271604938272,0,0,0.04938271604938272,22.66666666666667,0)" xlink:href="#ax"/><use transform="matrix(0.04938271604938272,0,0,0.04938271604938272,31.555555555555557,0)" xlink:href="#ar"/><use transform="matrix(0.04938271604938272,0,0,0.04938271604938272,36.49382716049384,0)" xlink:href="#bh"/><use transform="matrix(0.04938271604938272,0,0,0.04938271604938272,46.37037037037038,0)" xlink:href="#al"/><use transform="matrix(0.04938271604938272,0,0,0.04938271604938272,52.24691358024693,0)" xlink:href="#ao"/><use transform="matrix(0.04938271604938272,0,0,0.04938271604938272,57.185185185185205,0)" xlink:href="#bg"/></g><path d="M143 0L79-87 56-68V0H24v-261h32v163l83-92h37l-77 82L181 0h-38" id="bz"/><g id="V"><use transform="matrix(0.05,0,0,0.05,0,0)" xlink:href="#aT"/><use transform="matrix(0.05,0,0,0.05,3.95,0)" xlink:href="#aS"/><use transform="matrix(0.05,0,0,0.05,7.9,0)" xlink:href="#aG"/><use transform="matrix(0.05,0,0,0.05,17.9,0)" xlink:href="#bz"/></g><g id="W"><use transform="matrix(0.04938271604938272,0,0,0.04938271604938272,0,0)" xlink:href="#am"/><use transform="matrix(0.04938271604938272,0,0,0.04938271604938272,11.851851851851853,0)" xlink:href="#bh"/><use transform="matrix(0.04938271604938272,0,0,0.04938271604938272,21.7283950617284,0)" xlink:href="#aj"/><use transform="matrix(0.04938271604938272,0,0,0.04938271604938272,30.617283950617285,0)" xlink:href="#ar"/></g><g id="X"><use transform="matrix(0.04938271604938272,0,0,0.04938271604938272,0,0)" xlink:href="#bx"/><use transform="matrix(0.04938271604938272,0,0,0.04938271604938272,13.827160493827162,0)" xlink:href="#al"/><use transform="matrix(0.04938271604938272,0,0,0.04938271604938272,19.703703703703706,0)" xlink:href="#bh"/><use transform="matrix(0.04938271604938272,0,0,0.04938271604938272,29.58024691358025,0)" xlink:href="#bo"/><use transform="matrix(0.04938271604938272,0,0,0.04938271604938272,39.4567901234568,0)" xlink:href="#bj"/><use transform="matrix(0.04938271604938272,0,0,0.04938271604938272,49.33333333333334,0)" xlink:href="#ao"/><use transform="matrix(0.04938271604938272,0,0,0.04938271604938272,54.27160493827161,0)" xlink:href="#bg"/></g><g id="Y"><use transform="matrix(0.05,0,0,0.05,0,0)" xlink:href="#bd"/><use transform="matrix(0.05,0,0,0.05,5,0)" xlink:href="#aS"/><use transform="matrix(0.05,0,0,0.05,8.95,0)" xlink:href="#bd"/><use transform="matrix(0.05,0,0,0.05,13.949999999999998,0)" xlink:href="#aT"/><use transform="matrix(0.05,0,0,0.05,17.9,0)" xlink:href="#aF"/></g><g id="Z"><use transform="matrix(0.05,0,0,0.05,0,0)" xlink:href="#aJ"/><use transform="matrix(0.05,0,0,0.05,9,0)" xlink:href="#aK"/><use transform="matrix(0.05,0,0,0.05,19,0)" xlink:href="#aI"/><use transform="matrix(0.05,0,0,0.05,24.95,0)" xlink:href="#aL"/><use transform="matrix(0.05,0,0,0.05,33.95,0)" xlink:href="#aM"/><use transform="matrix(0.05,0,0,0.05,43.95,0)" xlink:href="#aK"/><use transform="matrix(0.05,0,0,0.05,53.95,0)" xlink:href="#aI"/><use transform="matrix(0.05,0,0,0.05,59.900000000000006,0)" xlink:href="#aN"/><use transform="matrix(0.05,0,0,0.05,65.85000000000001,0)" xlink:href="#aV"/><use transform="matrix(0.05,0,0,0.05,75.85000000000001,0)" xlink:href="#aP"/><use transform="matrix(0.05,0,0,0.05,85.85000000000001,0)" xlink:href="#aQ"/></g><g id="aa"><use transform="matrix(0.05,0,0,0.05,0,0)" xlink:href="#aL"/><use transform="matrix(0.05,0,0,0.05,9,0)" xlink:href="#aZ"/><use transform="matrix(0.05,0,0,0.05,19,0)" xlink:href="#aG"/><use transform="matrix(0.05,0,0,0.05,29,0)" xlink:href="#bd"/><use transform="matrix(0.05,0,0,0.05,34,0)" xlink:href="#aF"/><use transform="matrix(0.05,0,0,0.05,44,0)" xlink:href="#aG"/><use transform="matrix(0.05,0,0,0.05,54,0)" xlink:href="#bd"/></g><path fill="#333" d="M197 0v-115H63V0H30v-248h33v105h134v-105h34V0h-34" id="bA"/><path fill="#333" d="M140-251c81 0 123 46 123 126C263-46 219 4 140 4 59 4 17-45 17-125s42-126 123-126zm0 227c63 0 89-41 89-101s-29-99-89-99c-61 0-89 39-89 99S79-25 140-24" id="bB"/><g id="ab"><use transform="matrix(0.04938271604938272,0,0,0.04938271604938272,0,0)" xlink:href="#bA"/><use transform="matrix(0.04938271604938272,0,0,0.04938271604938272,12.790123456790125,0)" xlink:href="#ak"/><use transform="matrix(0.04938271604938272,0,0,0.04938271604938272,22.66666666666667,0)" xlink:href="#aD"/><use transform="matrix(0.04938271604938272,0,0,0.04938271604938272,26.567901234567902,0)" xlink:href="#bj"/><use transform="matrix(0.04938271604938272,0,0,0.04938271604938272,36.44444444444445,0)" xlink:href="#bB"/><use transform="matrix(0.04938271604938272,0,0,0.04938271604938272,50.27160493827161,0)" xlink:href="#as"/><use transform="matrix(0.04938271604938272,0,0,0.04938271604938272,54.8641975308642,0)" xlink:href="#as"/><use transform="matrix(0.04938271604938272,0,0,0.04938271604938272,59.802469135802475,0)" xlink:href="#ak"/><use transform="matrix(0.04938271604938272,0,0,0.04938271604938272,69.67901234567901,0)" xlink:href="#al"/></g><g id="ac"><use transform="matrix(0.04938271604938272,0,0,0.04938271604938272,0,0)" xlink:href="#br"/><use transform="matrix(0.04938271604938272,0,0,0.04938271604938272,10.864197530864198,0)" xlink:href="#bh"/><use transform="matrix(0.04938271604938272,0,0,0.04938271604938272,20.74074074074074,0)" xlink:href="#aD"/><use transform="matrix(0.04938271604938272,0,0,0.04938271604938272,24.641975308641975,0)" xlink:href="#bo"/><use transform="matrix(0.04938271604938272,0,0,0.04938271604938272,34.51851851851852,0)" xlink:href="#aq"/><use transform="matrix(0.04938271604938272,0,0,0.04938271604938272,44.39506172839506,0)" xlink:href="#ar"/><use transform="matrix(0.04938271604938272,0,0,0.04938271604938272,49.333333333333336,0)" xlink:href="#ak"/><use transform="matrix(0.04938271604938272,0,0,0.04938271604938272,59.20987654320988,0)" xlink:href="#ak"/><use transform="matrix(0.04938271604938272,0,0,0.04938271604938272,69.08641975308643,0)" xlink:href="#al"/><use transform="matrix(0.04938271604938272,0,0,0.04938271604938272,74.96296296296298,0)" xlink:href="#ao"/><use transform="matrix(0.04938271604938272,0,0,0.04938271604938272,79.90123456790124,0)" xlink:href="#bg"/></g><path d="M197 0v-115H63V0H30v-248h33v105h134v-105h34V0h-34" id="bC"/><g id="ad"><use transform="matrix(0.05,0,0,0.05,0,0)" xlink:href="#bC"/><use transform="matrix(0.05,0,0,0.05,12.950000000000001,0)" xlink:href="#aF"/><use transform="matrix(0.05,0,0,0.05,22.950000000000003,0)" xlink:href="#aT"/><use transform="matrix(0.05,0,0,0.05,26.900000000000002,0)" xlink:href="#aW"/><use transform="matrix(0.05,0,0,0.05,36.900000000000006,0)" xlink:href="#be"/><use transform="matrix(0.05,0,0,0.05,47.20000000000001,0)" xlink:href="#aS"/><use transform="matrix(0.05,0,0,0.05,51.15000000000001,0)" xlink:href="#aR"/><use transform="matrix(0.05,0,0,0.05,66.10000000000001,0)" xlink:href="#aF"/></g><g id="ae"><use transform="matrix(0.04938271604938272,0,0,0.04938271604938272,0,0)" xlink:href="#bx"/><use transform="matrix(0.04938271604938272,0,0,0.04938271604938272,13.827160493827162,0)" xlink:href="#al"/><use transform="matrix(0.04938271604938272,0,0,0.04938271604938272,19.703703703703706,0)" xlink:href="#bh"/><use transform="matrix(0.04938271604938272,0,0,0.04938271604938272,29.58024691358025,0)" xlink:href="#bo"/><use transform="matrix(0.04938271604938272,0,0,0.04938271604938272,39.4567901234568,0)" xlink:href="#bj"/><use transform="matrix(0.04938271604938272,0,0,0.04938271604938272,49.33333333333334,0)" xlink:href="#ai"/><use transform="matrix(0.04938271604938272,0,0,0.04938271604938272,62.12345679012347,0)" xlink:href="#aj"/><use transform="matrix(0.04938271604938272,0,0,0.04938271604938272,71.01234567901236,0)" xlink:href="#ak"/><use transform="matrix(0.04938271604938272,0,0,0.04938271604938272,80.8888888888889,0)" xlink:href="#al"/><use transform="matrix(0.04938271604938272,0,0,0.04938271604938272,86.76543209876544,0)" xlink:href="#aj"/></g><g id="af"><use transform="matrix(0.04938271604938272,0,0,0.04938271604938272,0,0)" xlink:href="#am"/><use transform="matrix(0.04938271604938272,0,0,0.04938271604938272,11.851851851851853,0)" xlink:href="#an"/></g><g id="ag"><use transform="matrix(0.04938271604938272,0,0,0.04938271604938272,0,0)" xlink:href="#bl"/><use transform="matrix(0.04938271604938272,0,0,0.04938271604938272,10.814814814814815,0)" xlink:href="#an"/></g><g id="ah"><use transform="matrix(0.04938271604938272,0,0,0.04938271604938272,0,0)" xlink:href="#ai"/><use transform="matrix(0.04938271604938272,0,0,0.04938271604938272,12.790123456790125,0)" xlink:href="#aj"/><use transform="matrix(0.04938271604938272,0,0,0.04938271604938272,21.679012345679013,0)" xlink:href="#ak"/><use transform="matrix(0.04938271604938272,0,0,0.04938271604938272,31.555555555555557,0)" xlink:href="#al"/><use transform="matrix(0.04938271604938272,0,0,0.04938271604938272,37.4320987654321,0)" xlink:href="#am"/><use transform="matrix(0.04938271604938272,0,0,0.04938271604938272,49.283950617283956,0)" xlink:href="#bh"/><use transform="matrix(0.04938271604938272,0,0,0.04938271604938272,59.1604938271605,0)" xlink:href="#aj"/><use transform="matrix(0.04938271604938272,0,0,0.04938271604938272,68.0493827160494,0)" xlink:href="#ar"/><use transform="matrix(0.04938271604938272,0,0,0.04938271604938272,72.98765432098767,0)" xlink:href="#aj"/></g></defs></g></svg>